PathFileType	4	(X/Y/Z)	/Users/itak/Documents/Research/Walk-IL/dataset/trc/00313_00010.trc
DataRate	CameraRate	NumFrames	NumMarkers	Units	OrigDataRate	OrigDataStartFrame	OrigNumFrames
100.000000	100.000000	4	53	mm	100.000000	258	517
Frame#	Time	RPSI			LPSI			L3			STRN			T10			C7			CLAV			RBAK			LBAK			LSHO			LUPA			LAEL			LAOL			LWTS			LWPS			LFRA			LIFD			LHPS			LHTS			RSHO			RUPA			RAEL			RAOL			RWTS			RWPS			RFRA			RIFD			RHTS			RHPS			RBHD			LFHD			RFHD			LBHD			LHIP			RHIP			RASI			LASI			LKNE			LTHI			LANK			LTIP			LTOE			LMT1			LMT5			LHEE			RKNE			RTHI			RANK			RTIP			RTOE			RMT1			RMT5			RHEE			
		X1	Y1	Z1	X2	Y2	Z2	X3	Y3	Z3	X4	Y4	Z4	X5	Y5	Z5	X6	Y6	Z6	X7	Y7	Z7	X8	Y8	Z8	X9	Y9	Z9	X10	Y10	Z10	X11	Y11	Z11	X12	Y12	Z12	X13	Y13	Z13	X14	Y14	Z14	X15	Y15	Z15	X16	Y16	Z16	X17	Y17	Z17	X18	Y18	Z18	X19	Y19	Z19	X20	Y20	Z20	X21	Y21	Z21	X22	Y22	Z22	X23	Y23	Z23	X24	Y24	Z24	X25	Y25	Z25	X26	Y26	Z26	X27	Y27	Z27	X28	Y28	Z28	X29	Y29	Z29	X30	Y30	Z30	X31	Y31	Z31	X32	Y32	Z32	X33	Y33	Z33	X34	Y34	Z34	X35	Y35	Z35	X36	Y36	Z36	X37	Y37	Z37	X38	Y38	Z38	X39	Y39	Z39	X40	Y40	Z40	X41	Y41	Z41	X42	Y42	Z42	X43	Y43	Z43	X44	Y44	Z44	X45	Y45	Z45	X46	Y46	Z46	X47	Y47	Z47	X48	Y48	Z48	X49	Y49	Z49	X50	Y50	Z50	X51	Y51	Z51	X52	Y52	Z52	X53	Y53	Z53	

259	2.58	-84.17042541503906	965.5488891601562	-425.2776184082031	29.93847846984863	957.9456176757812	-558.96044921875	-20.38936233520508	1032.072265625	-473.5516357421875	186.6476135253906	1201.460693359375	-338.773681640625	-37.70329284667969	1142.324584960938	-477.5750427246094	15.55197811126709	1386.90625	-472.742431640625	140.0780792236328	1301.580322265625	-380.9031066894531	-77.30156707763672	1253.934204101562	-434.1820678710938	56.30055618286133	1343.40283203125	-566.8072509765625	161.1898803710938	1347.390869140625	-565.7918090820312	152.5395660400391	1235.14501953125	-648.8153076171875	112.9678115844727	1039.796630859375	-678.1755981445312	35.50188446044922	1038.433715820312	-638.64501953125	95.55173492431641	797.83203125	-646.9821166992188	84.12652587890625	805.2019653320312	-718.7509155273438	98.65652465820312	937.4217529296875	-700.3033447265625	29.10673713684082	629.7023315429688	-687.6298217773438	55.09863662719727	724.0321044921875	-733.3956298828125	84.15992736816406	698.7855834960938	-678.7298583984375	-17.07229232788086	1368.848876953125	-302.7872009277344	-56.03514099121094	1308.829833984375	-246.0778656005859	-43.1806640625	1039.31298828125	-187.8015747070312	-42.75015640258789	1025.443969726562	-280.7756042480469	167.3290100097656	910.6410522460938	-228.6700134277344	128.5751342773438	871.188232421875	-164.4668426513672	9.944616317749023	987.7686767578125	-170.2536468505859	283.0946655273438	766.2120361328125	-242.0884399414062	258.204345703125	832.7896118164062	-214.3023681640625	214.8394165039062	796.139892578125	-171.6217346191406	-0.02791235968470573	1550.657592773438	-420.5872192382812	201.3494262695312	1578.828979492188	-358.3056030273438	128.8123626708984	1574.2431640625	-301.0261840820312	115.3450698852539	1548.287475585938	-509.8438415527344	146.7733306884766	917.1795654296875	-585.313720703125	-79.10055541992188	907.521728515625	-283.460205078125	58.12915420532227	906.2092895507812	-254.8334808349609	212.1773529052734	924.5797119140625	-454.3996276855469	313.8418579101562	499.1101684570312	-405.0693359375	278.1082153320312	623.6242065429688	-468.2068176269531	336.9591979980469	40.64132690429688	-437.4307556152344	338.6693725585938	267.3213195800781	-422.0692138671875	368.7811584472656	55.14824676513672	-227.3139801025391	303.4282531738281	38.1754035949707	-270.67041015625	398.4386291503906	41.17348480224609	-330.1781005859375	262.8799133300781	35.83956146240234	-452.0267333984375	-94.74893188476562	445.1073913574219	-380.496337890625	-49.53731536865234	690.1559448242188	-284.6662902832031	-306.1487121582031	89.89436340332031	-561.9210205078125	-123.1421279907227	328.0619812011719	-426.91064453125	-122.3899841308594	39.58393478393555	-582.7736206054688	-166.3681030273438	46.39285659790039	-629.0714111328125	-218.8364410400391	40.23852920532227	-522.5305786132812	-341.0816955566406	118.8812255859375	-618.5773315429688	
260	2.59	-74.63924407958984	966.2017211914062	-419.6007385253906	40.38581848144531	959.8660888671875	-552.6415405273438	-10.68393135070801	1033.590454101562	-467.5461120605469	195.5862884521484	1203.666015625	-332.2451171875	-28.04438400268555	1143.9287109375	-472.03125	25.18285942077637	1388.404296875	-467.9592590332031	149.2073516845703	1303.732299804688	-375.0074157714844	-67.91109466552734	1255.604858398438	-429.3204040527344	66.56932830810547	1344.544189453125	-561.5489501953125	171.4005737304688	1348.799438476562	-559.7722778320312	164.0094451904297	1236.202026367188	-642.3883666992188	125.999885559082	1040.46240234375	-671.1163330078125	48.17752456665039	1038.739379882812	-632.381103515625	110.2774276733398	798.4349975585938	-639.0421752929688	99.25637817382812	805.5191650390625	-710.907958984375	112.7071838378906	937.906494140625	-692.9305419921875	44.91911315917969	629.799560546875	-679.7747802734375	70.88130950927734	724.1709594726562	-725.57421875	99.623779296875	699.2365112304688	-670.5843505859375	-8.575732231140137	1371.354736328125	-298.2452087402344	-48.07487869262695	1311.748291015625	-241.5361175537109	-37.45788192749023	1041.81689453125	-184.2558441162109	-35.44474792480469	1028.51904296875	-277.2942199707031	170.6277008056641	908.3351440429688	-223.1000823974609	129.9835510253906	869.6012573242188	-159.6672210693359	14.42130565643311	989.1596069335938	-166.2969207763672	282.78173828125	760.9935302734375	-235.1476593017578	259.2813110351562	828.094482421875	-207.5255432128906	214.3451690673828	792.510009765625	-165.6393585205078	8.941169738769531	1552.125366210938	-416.4599304199219	209.7548828125	1580.967651367188	-352.8628540039062	136.8904571533203	1576.27880859375	-296.0680541992188	124.8711853027344	1549.912719726562	-504.8986206054688	157.5357360839844	919.8284912109375	-578.7457885742188	-69.86717224121094	907.502197265625	-277.9967651367188	67.71292114257812	907.0537719726562	-248.4873809814453	222.4333648681641	927.0897827148438	-447.4952392578125	321.1976928710938	498.9791870117188	-399.9489135742188	287.4031372070312	624.6780395507812	-462.2761840820312	337.6258544921875	40.54813766479492	-437.4801330566406	343.1092834472656	266.9142761230469	-419.1279602050781	369.0572814941406	52.92330169677734	-226.7525482177734	303.6657104492188	37.45244598388672	-270.6349182128906	398.8718872070312	40.1365966796875	-330.1152038574219	263.5096435546875	36.14712142944336	-452.184814453125	-83.00894165039062	444.6141662597656	-373.2714538574219	-39.02945709228516	690.207763671875	-278.8927001953125	-301.4237365722656	96.14756774902344	-560.7305297851562	-114.4952392578125	328.7048950195312	-420.4114074707031	-122.1829833984375	39.53396987915039	-582.808837890625	-164.3121490478516	47.82656097412109	-628.2086791992188	-217.3194427490234	40.80552673339844	-521.9248046875	-333.7597351074219	128.2750854492188	-616.9835815429688	
261	2.6	-65.25129699707031	966.95654296875	-414.2916870117188	50.85137557983398	961.9424438476562	-546.4641723632812	-1.03079617023468	1035.339233398438	-461.8122863769531	204.3480682373047	1205.968627929688	-325.5316772460938	-18.38834762573242	1145.731689453125	-466.6100158691406	34.84777450561523	1390.059204101562	-463.1204528808594	158.2586364746094	1306.030517578125	-368.9387817382812	-58.43757629394531	1257.439208984375	-424.4936218261719	76.99491882324219	1345.858276367188	-556.1968383789062	181.7456970214844	1350.371704101562	-553.52685546875	175.69970703125	1237.468383789062	-635.7667236328125	139.2765350341797	1041.333740234375	-663.9226684570312	61.04245758056641	1039.281005859375	-626.1326904296875	125.4189376831055	799.3023681640625	-630.7156372070312	114.894287109375	805.9725952148438	-702.7005615234375	127.0963821411133	938.5599975585938	-685.3452758789062	61.49983978271484	629.9783935546875	-671.3265991210938	87.31533813476562	724.3744506835938	-717.2861328125	115.7703704833984	699.9419555664062	-661.903076171875	-0.2022200077772141	1374.018676757812	-293.7111206054688	-40.26944732666016	1314.867553710938	-237.0016326904297	-31.73328590393066	1044.6171875	-180.4157257080078	-28.55072402954102	1031.841186523438	-273.5064697265625	173.4368743896484	905.8908081054688	-217.3684387207031	130.8687591552734	868.0724487304688	-154.6754455566406	18.75614929199219	990.7957763671875	-162.1066436767578	281.4398498535156	755.435791015625	-228.1215515136719	259.5706787109375	823.0762329101562	-200.6133575439453	213.0190277099609	788.769287109375	-159.4704895019531	17.89299201965332	1553.709228515625	-412.3031921386719	218.1126556396484	1583.26904296875	-347.368896484375	144.9040679931641	1578.513427734375	-291.0707702636719	134.3973388671875	1551.6142578125	-499.9029235839844	168.37939453125	922.5796508789062	-572.1155395507812	-60.96014785766602	907.6924438476562	-272.8564147949219	77.12609100341797	908.3177490234375	-242.1802825927734	232.4951171875	929.5884399414062	-440.4198303222656	327.9149475097656	498.5576782226562	-395.4396667480469	296.2081909179688	625.438720703125	-456.7212219238281	338.1173095703125	40.48403167724609	-437.4967346191406	346.9377136230469	266.3948364257812	-416.7077331542969	369.1220703125	51.02452850341797	-226.2295989990234	303.7464294433594	36.82480239868164	-270.6033325195312	399.13818359375	39.43928527832031	-330.077392578125	264.002197265625	36.36521148681641	-452.335205078125	-70.84283447265625	444.0758666992188	-365.1108093261719	-28.56253433227539	690.4409790039062	-272.8587951660156	-295.8637390136719	102.9560394287109	-559.3980102539062	-105.4072036743164	329.54443359375	-413.159912109375	-121.7198944091797	39.44040679931641	-582.6909790039062	-161.6818542480469	49.68667602539062	-627.0736694335938	-215.6463012695312	41.65155029296875	-521.3078002929688	-325.1111145019531	138.2828979492188	-615.1285400390625	
262	2.61	-56.04191589355469	967.8143920898438	-409.3989562988281	61.26227951049805	964.2074584960938	-540.4771728515625	8.588666915893555	1037.296752929688	-456.3773498535156	212.8990478515625	1208.296875	-318.6118774414062	-8.722491264343262	1147.66357421875	-461.3535766601562	44.53285217285156	1391.815185546875	-458.2381286621094	167.204833984375	1308.400634765625	-362.6857604980469	-48.90568161010742	1259.370239257812	-419.7476501464844	87.58448028564453	1347.30126953125	-550.76806640625	192.2223815917969	1352.051513671875	-547.0497436523438	187.6002655029297	1238.881103515625	-628.9454345703125	152.7870941162109	1042.353637695312	-656.61474609375	74.08909606933594	1040.007080078125	-619.9254150390625	140.9164733886719	800.399658203125	-622.0133666992188	130.9944610595703	806.5189208984375	-694.1370239257812	141.7848815917969	939.32763671875	-677.5615844726562	78.81956481933594	630.1967163085938	-662.2671508789062	104.3714065551758	724.600830078125	-708.5238647460938	132.5582885742188	700.868896484375	-652.6787109375	8.011187553405762	1376.75732421875	-289.2012634277344	-32.67073059082031	1318.085083007812	-232.5145416259766	-26.01099967956543	1047.647094726562	-176.2625732421875	-22.13374137878418	1035.319946289062	-269.4039306640625	175.7440643310547	903.3204345703125	-211.5113525390625	131.2964019775391	866.6348266601562	-149.4740447998047	22.97632217407227	992.6336059570312	-157.6725006103516	279.0770874023438	749.634033203125	-221.12158203125	259.0803833007812	817.8098754882812	-193.6588897705078	210.9385375976562	784.9905395507812	-153.1544342041016	26.82022094726562	1555.367431640625	-408.1158447265625	226.4114837646484	1585.663208007812	-341.8141174316406	152.8377685546875	1580.878173828125	-286.0277404785156	143.9107971191406	1553.339233398438	-494.8485107421875	179.2544708251953	925.4579467773438	-565.4207153320312	-52.47135925292969	908.0725708007812	-268.1143493652344	86.19686126708984	910.0203857421875	-236.0448303222656	242.3153381347656	932.0206298828125	-433.1805419921875	333.9998779296875	497.9506225585938	-391.5120849609375	304.4722595214844	626.0176391601562	-451.5472106933594	338.4597473144531	40.43696212768555	-437.4644775390625	350.2058715820312	265.8078002929688	-414.7586364746094	368.9942321777344	49.36389541625977	-225.7241516113281	303.6725463867188	36.24483489990234	-270.5640869140625	399.2459411621094	38.96934509277344	-330.0130310058594	264.3785705566406	36.5410270690918	-452.4800109863281	-58.33534622192383	443.5228271484375	-356.0027465820312	-18.22966766357422	690.8431396484375	-266.593017578125	-289.4427795410156	110.3677520751953	-557.8035278320312	-95.81802368164062	330.5964050292969	-405.120849609375	-120.8348159790039	39.25446701049805	-582.2400512695312	-158.3355255126953	52.07690048217773	-625.5538940429688	-213.7635650634766	42.95148086547852	-520.62548828125	-315.1614379882812	148.8280944824219	-612.870849609375	
